<?xml version="1.0" encoding="UTF-8" standalone="no"?>
<!-- Generator: Adobe Illustrator 19.0.0, SVG Export Plug-In . SVG Version: 6.00 Build 0)  -->

<svg
   version="1.1"
   id="Layer_1"
   x="0px"
   y="0px"
   viewBox="0 0 512 512"
   style="enable-background:new 0 0 512 512;"
   xml:space="preserve"
   sodipodi:docname="chart-image-talk.svg"
   inkscape:version="1.1.1 (3bf5ae0d25, 2021-09-20)"
   xmlns:inkscape="http://www.inkscape.org/namespaces/inkscape"
   xmlns:sodipodi="http://sodipodi.sourceforge.net/DTD/sodipodi-0.dtd"
   xmlns="http://www.w3.org/2000/svg"
   xmlns:svg="http://www.w3.org/2000/svg"><defs
   id="defs59" /><sodipodi:namedview
   id="namedview57"
   pagecolor="#ffffff"
   bordercolor="#999999"
   borderopacity="1"
   inkscape:pageshadow="0"
   inkscape:pageopacity="0"
   inkscape:pagecheckerboard="0"
   showgrid="false"
   inkscape:zoom="1.0598705"
   inkscape:cx="209.93131"
   inkscape:cy="281.63819"
   inkscape:window-width="1920"
   inkscape:window-height="1001"
   inkscape:window-x="-9"
   inkscape:window-y="1341"
   inkscape:window-maximized="1"
   inkscape:current-layer="Layer_1" />



















<g
   id="g1069"
   transform="matrix(1.3634698,0,0,1.3634698,2.9359147,2.9365964)"
   style="display:inline"><g
     id="g1006">
	<g
   id="g1004">
		<g
   id="g1002">
			<path
   d="m 174.697,171.743 c -6.642,0 -12.029,5.384 -12.029,12.024 0,6.643 5.387,12.029 12.029,12.029 6.639,0 12.024,-5.386 12.024,-12.029 0,-6.639 -5.385,-12.024 -12.024,-12.024 z"
   id="path986" />
			<path
   d="M 166.289,197.522 H 53.252 c -4.142,0 -7.5,3.358 -7.5,7.5 0,35.3 28.718,64.018 64.018,64.018 35.3,0 64.018,-28.718 64.018,-64.018 10e-4,-4.141 -3.357,-7.5 -7.499,-7.5 z m -56.518,56.52 c -24.48,0 -44.826,-18.036 -48.445,-41.518 h 96.891 c -3.621,23.482 -23.967,41.518 -48.446,41.518 z"
   id="path988" />
			<path
   d="m 276.858,56.412 c -43.409,0 -80.058,29.472 -91.005,69.457 C 165.524,106.252 138.538,95.251 109.77,95.251 49.243,95.251 0,144.495 0,205.022 c 0,60.528 49.243,109.771 109.771,109.771 45.009,0 85.214,-27.417 101.847,-68.792 10.326,-0.334 20.393,-3.057 29.442,-7.957 11.378,4.683 23.401,7.055 35.799,7.055 52.023,0 94.347,-42.322 94.347,-94.342 -0.001,-52.022 -42.325,-94.345 -94.348,-94.345 z m -93.876,180.11 c 0.429,2.753 2.349,5.042 4.986,5.942 2.6,0.888 5.241,1.613 7.913,2.171 -15.326,33.345 -48.805,55.158 -86.11,55.158 C 57.514,299.793 15,257.28 15,205.022 c 0,-52.257 42.514,-94.771 94.771,-94.771 28.44,0 54.866,12.456 72.956,34.276 -0.135,2.06 -0.211,4.136 -0.211,6.229 0,21.005 7.035,41.397 19.896,57.916 -3.593,8.199 -9.235,15.29 -16.488,20.672 -2.238,1.662 -3.371,4.425 -2.942,7.178 z m 93.876,-6.422 c -11.538,0 -22.689,-2.442 -33.144,-7.257 -2.292,-1.056 -4.96,-0.888 -7.102,0.445 -8.143,5.07 -17.532,7.75 -27.154,7.75 -1.145,0 -2.288,-0.038 -3.426,-0.114 5.252,-6.203 9.334,-13.344 12.043,-21.144 0.876,-2.524 0.344,-5.323 -1.397,-7.349 -12.358,-14.378 -19.164,-32.729 -19.164,-51.673 0,-43.751 35.593,-79.345 79.343,-79.345 43.752,0 79.347,35.594 79.347,79.345 10e-4,43.748 -35.594,79.342 -79.346,79.342 z"
   id="path990" />
			<path
   d="m 56.873,183.769 c 0,-6.64 -5.382,-12.024 -12.025,-12.024 -6.644,0 -12.027,5.384 -12.027,12.024 0,6.643 5.383,12.029 12.027,12.029 6.643,-0.001 12.025,-5.388 12.025,-12.029 z"
   id="path992" />
			<path
   d="m 322.17,131.199 h -90.624 c -4.142,0 -7.5,3.358 -7.5,7.5 0,4.142 3.358,7.5 7.5,7.5 h 90.624 c 4.142,0 7.5,-3.358 7.5,-7.5 0,-4.143 -3.357,-7.5 -7.5,-7.5 z"
   id="path994" />
			<path
   d="m 316.084,154.701 h -78.451 c -4.142,0 -7.5,3.358 -7.5,7.5 0,4.142 3.358,7.5 7.5,7.5 h 78.451 c 4.142,0 7.5,-3.358 7.5,-7.5 0,-4.143 -3.358,-7.5 -7.5,-7.5 z"
   id="path996" />
			<path
   d="m 303.564,178.204 h -53.411 c -4.142,0 -7.5,3.358 -7.5,7.5 0,4.142 3.358,7.5 7.5,7.5 h 53.411 c 4.142,0 7.5,-3.358 7.5,-7.5 0,-4.143 -3.358,-7.5 -7.5,-7.5 z"
   id="path998" />
			<path
   d="m 250.153,122.696 h 53.411 c 4.142,0 7.5,-3.358 7.5,-7.5 0,-4.142 -3.358,-7.5 -7.5,-7.5 h -53.411 c -4.142,0 -7.5,3.358 -7.5,7.5 0,4.141 3.358,7.5 7.5,7.5 z"
   id="path1000" />
		</g>
	</g>
</g><g
     id="g1008">
</g><g
     id="g1010">
</g><g
     id="g1012">
</g><g
     id="g1014">
</g><g
     id="g1016">
</g><g
     id="g1018">
</g><g
     id="g1020">
</g><g
     id="g1022">
</g><g
     id="g1024">
</g><g
     id="g1026">
</g><g
     id="g1028">
</g><g
     id="g1030">
</g><g
     id="g1032">
</g><g
     id="g1034">
</g><g
     id="g1036">
</g></g></svg>
