<?xml version="1.0" encoding="UTF-8" standalone="no"?>
<!-- Generator: Adobe Illustrator 19.0.0, SVG Export Plug-In . SVG Version: 6.00 Build 0)  -->

<svg
   version="1.1"
   id="Layer_1"
   x="0px"
   y="0px"
   viewBox="0 0 512 512"
   style="enable-background:new 0 0 512 512;"
   xml:space="preserve"
   sodipodi:docname="chart-image-read.svg"
   inkscape:version="1.1.1 (3bf5ae0d25, 2021-09-20)"
   xmlns:inkscape="http://www.inkscape.org/namespaces/inkscape"
   xmlns:sodipodi="http://sodipodi.sourceforge.net/DTD/sodipodi-0.dtd"
   xmlns="http://www.w3.org/2000/svg"
   xmlns:svg="http://www.w3.org/2000/svg"><defs
   id="defs59" /><sodipodi:namedview
   id="namedview57"
   pagecolor="#ffffff"
   bordercolor="#999999"
   borderopacity="1"
   inkscape:pageshadow="0"
   inkscape:pageopacity="0"
   inkscape:pagecheckerboard="0"
   showgrid="false"
   inkscape:zoom="1.0598705"
   inkscape:cx="209.93131"
   inkscape:cy="281.63819"
   inkscape:window-width="1920"
   inkscape:window-height="1001"
   inkscape:window-x="-9"
   inkscape:window-y="1341"
   inkscape:window-maximized="1"
   inkscape:current-layer="Layer_1" />



















<g
   id="g1449"
   transform="translate(5,5.0000078)"><g
     id="g1383">
	<g
   id="g1381">
		<g
   id="g1379">
			<path
   d="m 492,87.984 h -33.036 v -3.389 c 0,-2.753 -1.135,-5.384 -3.137,-7.272 -2.004,-1.891 -4.707,-2.866 -7.442,-2.711 L 251,86.054 53.615,74.612 c -2.75,-0.155 -5.441,0.82 -7.442,2.711 -2.002,1.889 -3.137,4.52 -3.137,7.272 v 3.389 H 10 c -5.522,0 -10,4.478 -10,10 v 319.42 c 0,5.522 4.478,10 10,10 h 482 c 5.522,0 10,-4.478 10,-10 V 97.984 c 0,-5.522 -4.478,-10 -10,-10 z M 261,105.509 438.964,95.193 V 369.714 L 261,380.03 Z M 63.036,95.192 241,105.509 V 380.03 L 63.036,369.713 Z M 482,407.404 H 20 V 107.984 H 43.036 V 379.15 c 0,5.298 4.132,9.677 9.421,9.983 l 197.964,11.477 c 0.193,0.011 0.384,0.016 0.575,0.016 0.001,0 0.002,0 0.003,0 h 0.001 0.001 c 0.001,0 0.002,0 0.003,0 0.192,0 0.384,-0.006 0.575,-0.016 l 197.964,-11.477 c 5.289,-0.307 9.421,-4.686 9.421,-9.983 V 107.984 H 482 Z"
   id="path1357" />
			<path
   d="m 214.281,130.08 -69.813,-4.047 c -5.516,-0.327 -10.242,3.892 -10.563,9.404 -0.319,5.514 3.892,10.243 9.404,10.563 l 69.813,4.047 c 0.197,0.012 0.394,0.017 0.588,0.017 5.258,0 9.666,-4.104 9.975,-9.421 0.32,-5.514 -3.891,-10.244 -9.404,-10.563 z"
   id="path1359" />
			<path
   d="m 92.623,143.061 17.215,0.998 c 0.197,0.012 0.394,0.017 0.588,0.017 5.258,0 9.666,-4.104 9.975,-9.421 0.319,-5.514 -3.891,-10.243 -9.404,-10.562 l -17.215,-0.998 c -5.541,-0.32 -10.242,3.892 -10.563,9.404 -0.32,5.513 3.89,10.243 9.404,10.562 z"
   id="path1361" />
			<path
   d="m 214.281,175.984 -120.5,-6.985 c -5.541,-0.319 -10.242,3.892 -10.563,9.404 -0.319,5.514 3.891,10.243 9.404,10.563 l 120.5,6.985 c 0.197,0.012 0.394,0.017 0.588,0.017 5.258,0 9.666,-4.104 9.975,-9.421 0.32,-5.514 -3.89,-10.244 -9.404,-10.563 z"
   id="path1363" />
			<path
   d="m 214.281,222.845 -120.5,-6.985 c -5.541,-0.317 -10.242,3.892 -10.563,9.404 -0.319,5.514 3.891,10.243 9.404,10.563 l 120.5,6.985 c 0.197,0.012 0.394,0.017 0.588,0.017 5.258,0 9.666,-4.104 9.975,-9.421 0.32,-5.514 -3.89,-10.243 -9.404,-10.563 z"
   id="path1365" />
			<path
   d="m 214.281,268.751 -120.5,-6.985 c -5.541,-0.317 -10.242,3.892 -10.563,9.404 -0.319,5.514 3.891,10.243 9.404,10.563 l 120.5,6.985 c 0.197,0.012 0.394,0.017 0.588,0.017 5.258,0 9.666,-4.104 9.975,-9.421 0.32,-5.514 -3.89,-10.244 -9.404,-10.563 z"
   id="path1367" />
			<path
   d="m 410.131,261.765 -74.595,4.324 c -5.514,0.319 -9.724,5.049 -9.404,10.563 0.309,5.316 4.716,9.421 9.975,9.421 0.194,0 0.391,-0.005 0.588,-0.017 l 74.595,-4.324 c 5.514,-0.319 9.724,-5.049 9.404,-10.563 -0.321,-5.512 -5.009,-9.727 -10.563,-9.404 z"
   id="path1369" />
			<path
   d="m 305.889,267.808 -16.258,0.942 c -5.513,0.319 -9.724,5.049 -9.404,10.563 0.309,5.316 4.716,9.421 9.975,9.421 0.194,0 0.391,-0.005 0.588,-0.017 l 16.258,-0.942 c 5.513,-0.319 9.724,-5.049 9.404,-10.563 -0.321,-5.512 -5.035,-9.727 -10.563,-9.404 z"
   id="path1371" />
			<path
   d="m 410.131,215.86 -120.5,6.985 c -5.514,0.319 -9.724,5.049 -9.404,10.563 0.309,5.316 4.716,9.421 9.975,9.421 0.194,0 0.391,-0.005 0.588,-0.017 l 120.5,-6.985 c 5.514,-0.319 9.724,-5.049 9.404,-10.563 -0.321,-5.512 -5.009,-9.721 -10.563,-9.404 z"
   id="path1373" />
			<path
   d="m 410.131,168.999 -120.5,6.985 c -5.514,0.319 -9.724,5.049 -9.404,10.563 0.309,5.316 4.716,9.421 9.975,9.421 0.194,0 0.391,-0.005 0.588,-0.017 l 120.5,-6.985 c 5.514,-0.319 9.724,-5.049 9.404,-10.563 -0.321,-5.513 -5.009,-9.732 -10.563,-9.404 z"
   id="path1375" />
			<path
   d="m 410.131,123.094 -120.5,6.985 c -5.514,0.319 -9.724,5.049 -9.404,10.563 0.309,5.316 4.716,9.421 9.975,9.421 0.194,0 0.391,-0.005 0.588,-0.017 l 120.5,-6.985 c 5.514,-0.319 9.724,-5.049 9.404,-10.563 -0.321,-5.512 -5.009,-9.727 -10.563,-9.404 z"
   id="path1377" />
		</g>
	</g>
</g><g
     id="g1385">
</g><g
     id="g1387">
</g><g
     id="g1389">
</g><g
     id="g1391">
</g><g
     id="g1393">
</g><g
     id="g1395">
</g><g
     id="g1397">
</g><g
     id="g1399">
</g><g
     id="g1401">
</g><g
     id="g1403">
</g><g
     id="g1405">
</g><g
     id="g1407">
</g><g
     id="g1409">
</g><g
     id="g1411">
</g><g
     id="g1413">
</g></g></svg>
