<?xml version="1.0" encoding="UTF-8" standalone="no"?>
<!-- Generator: Adobe Illustrator 19.0.0, SVG Export Plug-In . SVG Version: 6.00 Build 0)  -->

<svg
   version="1.1"
   id="Layer_1"
   x="0px"
   y="0px"
   viewBox="0 0 512 512"
   style="enable-background:new 0 0 512 512;"
   xml:space="preserve"
   sodipodi:docname="chart-image-write.svg"
   inkscape:version="1.1.1 (3bf5ae0d25, 2021-09-20)"
   xmlns:inkscape="http://www.inkscape.org/namespaces/inkscape"
   xmlns:sodipodi="http://sodipodi.sourceforge.net/DTD/sodipodi-0.dtd"
   xmlns="http://www.w3.org/2000/svg"
   xmlns:svg="http://www.w3.org/2000/svg"><defs
   id="defs59" /><sodipodi:namedview
   id="namedview57"
   pagecolor="#ffffff"
   bordercolor="#999999"
   borderopacity="1"
   inkscape:pageshadow="0"
   inkscape:pageopacity="0"
   inkscape:pagecheckerboard="0"
   showgrid="false"
   inkscape:zoom="1.0598705"
   inkscape:cx="209.93131"
   inkscape:cy="281.63819"
   inkscape:window-width="1920"
   inkscape:window-height="1001"
   inkscape:window-x="-9"
   inkscape:window-y="1341"
   inkscape:window-maximized="1"
   inkscape:current-layer="Layer_1" />



















<g
   style="fill:none"
   id="g1270"
   transform="matrix(33.587437,0,0,33.587437,4.0942225,4.0942225)"><path
     fill-rule="evenodd"
     clip-rule="evenodd"
     d="M 6.5,1 C 6.22386,1 6,1.22386 6,1.5 6,1.77614 6.22386,2 6.5,2 7.12671,2 7.45718,2.20028 7.65563,2.47812 7.8781,2.78957 8,3.28837 8,4 v 7 C 8,11.7116 7.8781,12.2104 7.65563,12.5219 7.45718,12.7997 7.12671,13 6.5,13 6.22386,13 6,13.2239 6,13.5 6,13.7761 6.22386,14 6.5,14 7.37329,14 8.04282,13.7003 8.46937,13.1031 8.47976,13.0886 8.48997,13.0739 8.5,13.0591 8.51003,13.0739 8.52024,13.0886 8.53063,13.1031 8.95718,13.7003 9.62671,14 10.5,14 10.7761,14 11,13.7761 11,13.5 11,13.2239 10.7761,13 10.5,13 9.87329,13 9.54282,12.7997 9.34437,12.5219 9.1219,12.2104 9,11.7116 9,11 V 4 C 9,3.28837 9.1219,2.78957 9.34437,2.47812 9.54282,2.20028 9.87329,2 10.5,2 10.7761,2 11,1.77614 11,1.5 11,1.22386 10.7761,1 10.5,1 9.62671,1 8.95718,1.29972 8.53063,1.89688 8.52024,1.91143 8.51003,1.92611 8.5,1.9409 8.48997,1.92611 8.47976,1.91143 8.46937,1.89688 8.04282,1.29972 7.37329,1 6.5,1 Z M 14,5 H 11 V 4 h 3 c 0.5523,0 1,0.44772 1,1 v 5 c 0,0.5523 -0.4477,1 -1,1 h -3 v -1 h 3 z M 6,4 V 5 H 1 v 5 h 5 v 1 H 1 C 0.447715,11 0,10.5523 0,10 V 5 C 0,4.44772 0.447715,4 1,4 Z"
     fill="currentColor"
     id="path1261" /></g></svg>
