<?xml version="1.0" encoding="UTF-8" standalone="no"?>
<!-- Generator: Adobe Illustrator 19.0.0, SVG Export Plug-In . SVG Version: 6.00 Build 0)  -->

<svg
   version="1.1"
   id="Layer_1"
   x="0px"
   y="0px"
   viewBox="0 0 512 512"
   style="enable-background:new 0 0 512 512;"
   xml:space="preserve"
   sodipodi:docname="chart-image-model.svg"
   inkscape:version="1.1.1 (3bf5ae0d25, 2021-09-20)"
   xmlns:inkscape="http://www.inkscape.org/namespaces/inkscape"
   xmlns:sodipodi="http://sodipodi.sourceforge.net/DTD/sodipodi-0.dtd"
   xmlns="http://www.w3.org/2000/svg"
   xmlns:svg="http://www.w3.org/2000/svg"><defs
   id="defs59" /><sodipodi:namedview
   id="namedview57"
   pagecolor="#ffffff"
   bordercolor="#999999"
   borderopacity="1"
   inkscape:pageshadow="0"
   inkscape:pageopacity="0"
   inkscape:pagecheckerboard="0"
   showgrid="false"
   inkscape:zoom="1.0598705"
   inkscape:cx="209.93131"
   inkscape:cy="281.63819"
   inkscape:window-width="1920"
   inkscape:window-height="1001"
   inkscape:window-x="-9"
   inkscape:window-y="1341"
   inkscape:window-maximized="1"
   inkscape:current-layer="Layer_1" />
<g
   id="g6">
	<g
   id="g4">
		<path
   d="M487.305,24.112H370.269c-6.704,0-12.141,5.437-12.141,12.141v11.206h-32.986V36.252c0-6.704-5.437-12.141-12.141-12.141    h-47.762c-20.554,0-39.875,8.002-54.405,22.532c-14.529,14.529-22.531,33.852-22.531,54.404c0,42.422,34.514,76.936,76.936,76.936    h47.762c6.704,0,12.141-5.437,12.141-12.141v-11.206h32.986v11.206c0,6.704,5.437,12.141,12.141,12.141h25.993v125.96    c0,16.226,11.43,29.825,26.661,33.188v138.616c0,6.704,5.437,12.141,12.141,12.141c6.704,0,12.141-5.437,12.141-12.141V337.133    c15.231-3.363,26.661-16.962,26.661-33.188V177.984h13.439c13.617,0,24.695-11.072,24.695-24.682V48.794    C512,35.184,500.922,24.112,487.305,24.112z M300.86,153.702h-35.621c-29.035,0-52.654-23.621-52.654-52.654    c0-14.067,5.477-27.291,15.42-37.234c9.943-9.943,23.167-15.42,37.234-15.42h35.621V153.702z M358.128,130.355h-32.986V71.741    h32.986V130.355z M449.584,303.944c0,5.355-4.357,9.713-9.713,9.713h-9.615c-5.355,0-9.713-4.357-9.713-9.713v-125.96h29.041    V303.944z M487.719,153.301c0,0.217-0.189,0.401-0.414,0.401H382.41v-11.206V59.6V48.394h40.514v42.794    c0,6.704,5.437,12.141,12.141,12.141c6.704,0,12.141-5.437,12.141-12.141V48.393h40.1c0.225,0,0.414,0.183,0.414,0.401V153.301z"
   id="path2" />
	</g>
</g>
<g
   id="g12">
	<g
   id="g10">
		<path
   d="M435.064,112.13c-6.704,0-12.141,5.437-12.141,12.141v7.433c0,6.704,5.437,12.141,12.141,12.141    c6.704,0,12.141-5.437,12.141-12.141v-7.433C447.205,117.566,441.769,112.13,435.064,112.13z"
   id="path8" />
	</g>
</g>
<g
   id="g18">
	<g
   id="g16">
		<path
   d="M76.936,24.112C34.514,24.112,0,58.625,0,101.048c0,28.277,15.345,53.022,38.134,66.393v136.503    c0,16.226,11.431,29.825,26.661,33.188v138.616c0,6.704,5.435,12.141,12.141,12.141s12.141-5.437,12.141-12.141V337.133    c15.231-3.363,26.661-16.962,26.661-33.189V167.441c22.789-13.371,38.134-38.117,38.134-66.393    C153.872,58.625,119.358,24.112,76.936,24.112z M91.456,303.944c0,5.355-4.357,9.713-9.713,9.713h-9.615    c-5.355,0-9.713-4.357-9.713-9.713v-125.96h29.041V303.944z M76.936,153.702c-29.033,0-52.654-23.621-52.654-52.654    c0-29.033,23.621-52.654,52.654-52.654c29.035,0,52.654,23.621,52.654,52.654C129.59,130.081,105.969,153.702,76.936,153.702z"
   id="path14" />
	</g>
</g>
<g
   id="g24">
	<g
   id="g22">
		<path
   d="M76.936,68.316c-18.048,0-32.732,14.683-32.732,32.731c0,18.048,14.683,32.732,32.732,32.732    c18.056,0,32.744-14.683,32.744-32.732C109.68,82.999,94.99,68.316,76.936,68.316z M76.936,109.498c-4.66,0-8.45-3.79-8.45-8.45    c0-4.66,3.79-8.45,8.45-8.45c4.666,0,8.462,3.79,8.462,8.45C85.398,105.707,81.602,109.498,76.936,109.498z"
   id="path20" />
	</g>
</g>
<g
   id="g26">
</g>
<g
   id="g28">
</g>
<g
   id="g30">
</g>
<g
   id="g32">
</g>
<g
   id="g34">
</g>
<g
   id="g36">
</g>
<g
   id="g38">
</g>
<g
   id="g40">
</g>
<g
   id="g42">
</g>
<g
   id="g44">
</g>
<g
   id="g46">
</g>
<g
   id="g48">
</g>
<g
   id="g50">
</g>
<g
   id="g52">
</g>
<g
   id="g54">
</g>
</svg>
