<?xml version="1.0" encoding="UTF-8" standalone="no"?>
<!-- Generator: Adobe Illustrator 19.0.0, SVG Export Plug-In . SVG Version: 6.00 Build 0)  -->

<svg
   version="1.1"
   id="Layer_1"
   x="0px"
   y="0px"
   viewBox="0 0 32 32"
   xml:space="preserve"
   sodipodi:docname="linkedin-logo.svg"
   inkscape:version="1.1.1 (3bf5ae0d25, 2021-09-20)"
   width="32"
   height="32"
   xmlns:inkscape="http://www.inkscape.org/namespaces/inkscape"
   xmlns:sodipodi="http://sodipodi.sourceforge.net/DTD/sodipodi-0.dtd"
   xmlns="http://www.w3.org/2000/svg"
   xmlns:svg="http://www.w3.org/2000/svg"><defs
   id="defs37" /><sodipodi:namedview
   id="namedview35"
   pagecolor="#ffffff"
   bordercolor="#999999"
   borderopacity="1"
   inkscape:pageshadow="0"
   inkscape:pageopacity="0"
   inkscape:pagecheckerboard="0"
   showgrid="false"
   inkscape:zoom="1.8653869"
   inkscape:cx="162.70083"
   inkscape:cy="208.80387"
   inkscape:window-width="1920"
   inkscape:window-height="1001"
   inkscape:window-x="-9"
   inkscape:window-y="1341"
   inkscape:window-maximized="1"
   inkscape:current-layer="Layer_1" />
<path
   style="display:inline;fill:#0077b7;stroke-width:0.0837695"
   d="M 29.10534,0 H 2.8946597 C 1.296,0 0,1.296 0,2.8946597 V 29.105256 C 0,30.704 1.296,32 2.8946597,32 H 29.105256 C 30.704,32 32,30.704 32,29.105256 V 2.8946597 C 32,1.296 30.704,0 29.10534,0 Z M 9.902157,27.630911 c 0,0.465256 -0.377131,0.842388 -0.8423875,0.842388 h -3.585843 c -0.4652565,0 -0.8423872,-0.377131 -0.8423872,-0.842388 V 12.599204 c 0,-0.465256 0.3771307,-0.842387 0.8423872,-0.842387 h 3.585843 c 0.4652565,0 0.8423875,0.377131 0.8423875,0.842387 z M 7.266848,10.339854 c -1.881382,0 -3.4065757,-1.5251945 -3.4065757,-3.4065765 0,-1.881382 1.5251937,-3.4065759 3.4065757,-3.4065759 1.8813825,0 3.406576,1.5251939 3.406576,3.4065759 0,1.881382 -1.52511,3.4065765 -3.406576,3.4065765 z m 21.374827,17.35891 c 0,0.427728 -0.346806,0.774534 -0.774534,0.774534 h -3.847874 c -0.427728,0 -0.774534,-0.346806 -0.774534,-0.774534 v -7.050722 c 0,-1.051812 0.308523,-4.609089 -2.748733,-4.609089 -2.371435,0 -2.85244,2.434848 -2.949026,3.527539 v 8.132272 c 0,0.427728 -0.346723,0.774534 -0.774534,0.774534 h -3.72155 c -0.427728,0 -0.774534,-0.346806 -0.774534,-0.774534 V 12.531351 c 0,-0.427728 0.346806,-0.774534 0.774534,-0.774534 h 3.72155 c 0.427727,0 0.774534,0.346806 0.774534,0.774534 v 1.311414 c 0.879329,-1.319623 2.186136,-2.338178 4.968544,-2.338178 6.161424,0 6.126157,5.756314 6.126157,8.91912 z"
   id="path2" />















</svg>
